<?xml version="1.0" encoding="UTF-8"?>
<svg id="Layer_2" data-name="Layer 2" xmlns="http://www.w3.org/2000/svg" viewBox="0 0 64 64">
  <defs>
    <style>
      .cls-1 {
        fill: #fff;
      }

      .cls-2 {
        fill: #cef62e;
      }
    </style>
  </defs>
  <g id="Layer_1-2" data-name="Layer 1">
    <rect width="64" height="64"/>
    <path class="cls-1" d="m18.24,5.69v3.76c0,.49.1.98.28,1.44.19.46.46.87.8,1.22.34.35.75.63,1.2.81.45.19.93.29,1.41.29h14.76c4.89,0,9.58,1.98,13.04,5.5,3.46,3.52,5.4,8.3,5.4,13.29,0,2.47-.48,4.91-1.4,7.19-.93,2.28-2.29,4.35-4,6.1-1.71,1.75-3.75,3.13-5.98,4.07-2.24.94-4.64,1.43-7.06,1.43h-14.76c-.48,0-.96.1-1.41.29-.45.19-.85.47-1.2.81-.34.35-.61.76-.8,1.22-.19.46-.28.94-.28,1.44v3.76h18.44c3.39,0,6.75-.68,9.88-2,3.13-1.32,5.98-3.26,8.38-5.7,2.4-2.44,4.3-5.34,5.6-8.54,1.3-3.19,1.97-6.61,1.97-10.07,0-6.98-2.72-13.67-7.56-18.6-4.84-4.93-11.41-7.71-18.26-7.71h-18.44Z"/>
    <path class="cls-2" d="m47.76,32c0-2.99-1.17-5.86-3.24-7.97-2.08-2.11-4.89-3.3-7.83-3.3h-18.45c-1.96,0-3.83-.79-5.22-2.2-1.38-1.41-2.16-3.32-2.16-5.32v-7.52H3.49v7.52c0,3.99,1.55,7.81,4.32,10.63,2.77,2.82,6.52,4.4,10.43,4.4h18.45c.98,0,1.92.4,2.61,1.1.69.71,1.08,1.66,1.08,2.66s-.39,1.95-1.08,2.66c-.69.71-1.63,1.1-2.61,1.1h-18.45c-3.91,0-7.67,1.58-10.43,4.4-2.77,2.82-4.32,6.64-4.32,10.63v7.52h7.38v-7.52c0-1.99.78-3.91,2.16-5.32,1.38-1.41,3.26-2.2,5.22-2.2h18.45c1.45,0,2.89-.29,4.24-.86,1.34-.57,2.56-1.4,3.59-2.44,1.03-1.05,1.84-2.29,2.4-3.66.56-1.37.84-2.83.84-4.32Z"/>
  </g>
</svg>