<?xml version="1.0" encoding="UTF-8"?>
<svg id="Layer_2" data-name="Layer 2" xmlns="http://www.w3.org/2000/svg" viewBox="0 0 134.43 126.31">
  <defs>
    <style>
      .cls-1 {
        fill: #487d75;
      }

      .cls-2 {
        fill: #fff;
      }

      .cls-3 {
        fill: #e1a31b;
      }

      .cls-4 {
        fill: #cef62e;
      }

      .cls-5 {
        fill: #272e44;
      }
    </style>
  </defs>
  <g id="PRINT_2" data-name="PRINT 2">
    <g>
      <rect class="cls-1" x=".45" y="94.73" width="33.5" height="31.58"/>
      <rect class="cls-3" x="1.03" y="30.62" width="31.58" height="33.5" transform="translate(-30.54 64.19) rotate(-90)"/>
      <polygon class="cls-3" points="48.85 0 48.85 31.58 15.35 0 48.85 0"/>
      <path class="cls-5" d="m16.31-.96h31.58v5c0,15.73-12.77,28.49-28.49,28.49h-3.08V-.96h0Z" transform="translate(16.31 47.89) rotate(-90)"/>
      <path class="cls-1" d="m15.35,14.47h4.69c7.43,0,13.45,5.68,13.45,12.68v4.42h15.35v-8.17C48.85,10.48,37.73,0,24.02,0h-8.66v14.47Z"/>
      <path class="cls-5" d="m1.03,30.62h3.08c15.73,0,28.49,12.77,28.49,28.49v5H1.03V30.62h0Z" transform="translate(64.19 30.54) rotate(90)"/>
      <path class="cls-2" d="m0,31.58h15.35c0,7.99-6.87,14.47-15.35,14.47h0v-14.47Z"/>
      <path class="cls-2" d="m.45,94.73h15.35c0,7.99-6.87,14.47-15.35,14.47H.45v-14.47Z"/>
      <rect class="cls-5" x="67.44" y="94.73" width="33.5" height="31.58"/>
      <rect class="cls-5" x="33.94" y="63.15" width="33.5" height="31.58"/>
      <path class="cls-4" d="m67.45,94.73h0s-33.5,0-33.5,0v-31.58h0c18.5,0,33.5,14.14,33.5,31.58Z"/>
      <rect class="cls-5" x="34.9" y="93.77" width="31.58" height="33.5" transform="translate(161.21 59.83) rotate(90)"/>
      <polygon class="cls-4" points="100.93 126.31 100.93 94.73 134.43 126.31 100.93 126.31"/>
      <rect class="cls-5" x=".45" y="63.15" width="33.5" height="31.58" transform="translate(34.39 157.89) rotate(180)"/>
      <path class="cls-2" d="m.45,94.73v-31.58H.45c9.25,0,9.99,10.73,16.05,16.45,6.06,5.71,17.44,6.41,17.44,15.13H.45Z"/>
      <path class="cls-1" d="m.45,94.73v-14.47H.45c8.48,0,15.35,6.48,15.35,14.47H.45Z"/>
      <g>
        <path class="cls-5" d="m93.42,69.02c.76,0,1.37.58,1.37,1.29s-.61,1.29-1.37,1.29-1.37-.58-1.37-1.29.61-1.29,1.37-1.29Z"/>
        <path class="cls-5" d="m84.19,69.02c.76,0,1.37.58,1.37,1.29s-.61,1.29-1.37,1.29-1.37-.58-1.37-1.29.61-1.29,1.37-1.29Z"/>
        <path class="cls-5" d="m74.96,71.61c-.76,0-1.37-.58-1.37-1.29s.61-1.29,1.37-1.29,1.37.58,1.37,1.29-.61,1.29-1.37,1.29Z"/>
        <path class="cls-5" d="m93.42,77.64c.76,0,1.37.58,1.37,1.29s-.61,1.29-1.37,1.29-1.37-.58-1.37-1.29.61-1.29,1.37-1.29Z"/>
        <path class="cls-5" d="m84.19,77.64c.76,0,1.37.58,1.37,1.29s-.61,1.29-1.37,1.29-1.37-.58-1.37-1.29.61-1.29,1.37-1.29Z"/>
        <path class="cls-5" d="m74.96,77.64c.76,0,1.37.58,1.37,1.29s-.61,1.29-1.37,1.29-1.37-.58-1.37-1.29.61-1.29,1.37-1.29Z"/>
        <path class="cls-5" d="m93.42,86.27c.76,0,1.37.58,1.37,1.29s-.61,1.29-1.37,1.29-1.37-.58-1.37-1.29.61-1.29,1.37-1.29Z"/>
        <path class="cls-5" d="m84.19,86.27c.76,0,1.37.58,1.37,1.29s-.61,1.29-1.37,1.29-1.37-.58-1.37-1.29.61-1.29,1.37-1.29Z"/>
        <path class="cls-5" d="m74.96,86.27c.76,0,1.37.58,1.37,1.29s-.61,1.29-1.37,1.29-1.37-.58-1.37-1.29.61-1.29,1.37-1.29Z"/>
      </g>
      <g>
        <path class="cls-2" d="m50.69,110.68c1.53,0,2.78,1.15,2.78,2.56v11.97h-5.57v-11.97c0-1.41,1.25-2.56,2.78-2.56m0-1.09c-2.14,0-3.87,1.63-3.87,3.65v13.06h7.74v-13.06c0-2.02-1.73-3.65-3.87-3.65h0Z"/>
        <path class="cls-2" d="m50.69,107.11c3.4,0,6.17,2.58,6.17,5.76v12.36h-12.34v-12.36c0-3.17,2.77-5.76,6.17-5.76m0-1.09c-4.01,0-7.26,3.06-7.26,6.84v13.45h14.52v-13.45c0-3.78-3.25-6.84-7.26-6.84h0Z"/>
        <path class="cls-2" d="m50.69,103.53c5.27,0,9.56,4.02,9.56,8.95v12.74h-19.12v-12.74c0-4.94,4.29-8.95,9.56-8.95m0-1.09c-5.88,0-10.65,4.49-10.65,10.04v13.83h21.3v-13.83c0-5.54-4.77-10.04-10.65-10.04h0Z"/>
        <path class="cls-2" d="m50.69,99.95c7.14,0,12.95,5.45,12.95,12.15v13.13h-25.9v-13.13c0-6.7,5.81-12.15,12.95-12.15m0-1.09c-7.75,0-14.04,5.93-14.04,13.23v14.21h28.08v-14.21c0-7.31-6.29-13.23-14.04-13.23h0Z"/>
      </g>
      <path class="cls-2" d="m92.51,107.14l-6.99,3.38,6.99,3.38c.51.25.69.84.41,1.31s-.93.61-1.41.32l-6.6-4.02.39,7.4c.03.54-.43.99-1,.99s-1.03-.45-1-.99l.39-7.4-6.6,4.02c-.48.29-1.12.15-1.41-.32-.29-.47-.1-1.06.41-1.31l6.99-3.38-6.99-3.38c-.51-.25-.69-.84-.41-1.31.29-.47.93-.61,1.41-.32l6.6,4.02-.39-7.4c-.03-.54.43-.99,1-.99s1.03.45,1,.99l-.39,7.4,6.6-4.02c.48-.29,1.12-.15,1.41.32.29.47.1,1.06-.41,1.31Z"/>
    </g>
  </g>
</svg>