<?xml version="1.0" encoding="UTF-8"?>
<svg id="Layer_2" data-name="Layer 2" xmlns="http://www.w3.org/2000/svg" xmlns:xlink="http://www.w3.org/1999/xlink" viewBox="0 0 1073.35 894.45">
  <defs>
    <style>
      .cls-1 {
        fill: #fff;
      }

      .cls-2 {
        stroke: #61acba;
      }

      .cls-2, .cls-3, .cls-4, .cls-5 {
        stroke-width: 5.37px;
      }

      .cls-2, .cls-3, .cls-4, .cls-5, .cls-6 {
        stroke-miterlimit: 10;
      }

      .cls-2, .cls-3, .cls-4, .cls-5, .cls-6, .cls-7 {
        fill: none;
      }

      .cls-3, .cls-6 {
        stroke: #fff;
      }

      .cls-8 {
        fill: #d880b9;
      }

      .cls-9 {
        clip-path: url(#clippath-2);
      }

      .cls-4 {
        stroke: #41155f;
      }

      .cls-10 {
        clip-path: url(#clippath-1);
      }

      .cls-11 {
        clip-path: url(#clippath-4);
      }

      .cls-5 {
        stroke: #be2c7a;
      }

      .cls-6 {
        stroke-width: 17.89px;
      }

      .cls-12 {
        fill: #be2c7a;
      }

      .cls-13 {
        fill: #61acba;
      }

      .cls-14 {
        clip-path: url(#clippath);
      }

      .cls-15 {
        clip-path: url(#clippath-3);
      }

      .cls-16 {
        clip-path: url(#clippath-5);
      }

      .cls-17 {
        fill: #41155f;
      }
    </style>
    <clipPath id="clippath">
      <rect class="cls-17" x="894.46" y="178.89" width="178.89" height="178.9"/>
    </clipPath>
    <clipPath id="clippath-1">
      <rect class="cls-7" x="178.89" width="178.89" height="178.89"/>
    </clipPath>
    <clipPath id="clippath-2">
      <rect class="cls-7" x="357.78" width="178.9" height="178.89"/>
    </clipPath>
    <clipPath id="clippath-3">
      <rect class="cls-7" x="715.56" y="715.57" width="178.89" height="178.88"/>
    </clipPath>
    <clipPath id="clippath-4">
      <rect class="cls-7" x="894.46" y="536.67" width="178.89" height="178.89"/>
    </clipPath>
    <clipPath id="clippath-5">
      <rect class="cls-7" y="715.57" width="178.89" height="178.88"/>
    </clipPath>
  </defs>
  <g id="OBJECTS">
    <g>
      <g>
        <polyline class="cls-13" points="0 0 178.89 0 178.89 178.89"/>
        <polyline class="cls-12" points="89.44 89.45 0 0 89.44 0 178.89 0"/>
        <polyline class="cls-17" points="178.89 178.89 0 178.89 0 0"/>
        <polyline class="cls-8" points="134.17 134.17 44.72 134.17 44.72 44.72"/>
      </g>
      <g>
        <rect class="cls-17" x="536.68" width="178.89" height="178.89"/>
        <rect class="cls-6" x="581.4" y="44.72" width="89.44" height="89.44"/>
        <rect class="cls-12" x="603.76" y="67.08" width="44.73" height="44.72"/>
      </g>
      <g>
        <rect class="cls-17" x="178.89" y="178.89" width="178.89" height="178.89"/>
        <rect class="cls-1" x="245.97" y="245.98" width="44.72" height="44.72" transform="translate(-111.15 268.32) rotate(-45)"/>
        <rect class="cls-5" x="223.61" y="223.62" width="89.45" height="89.44" transform="translate(-111.15 268.33) rotate(-45)"/>
      </g>
      <g>
        <rect class="cls-12" x="357.78" y="178.89" width="178.9" height="178.89"/>
        <polyline class="cls-13" points="536.68 357.78 357.78 357.78 357.78 178.89"/>
        <polyline class="cls-1" points="491.95 313.06 402.5 313.06 402.5 223.61"/>
        <polyline class="cls-17" points="469.59 290.7 424.87 290.7 424.87 245.98"/>
      </g>
      <g>
        <rect class="cls-17" y="357.78" width="178.89" height="178.89"/>
        <rect class="cls-12" x="59.93" y="357.78" width="59.04" height="178.89"/>
        <rect class="cls-8" x="84.98" y="357.78" width="8.94" height="178.89"/>
      </g>
      <g>
        <rect class="cls-12" x="715.56" y="357.78" width="178.89" height="178.89"/>
        <rect class="cls-4" x="737.92" y="380.14" width="134.18" height="134.17"/>
        <rect class="cls-8" x="760.29" y="402.5" width="89.44" height="89.45"/>
        <rect class="cls-3" x="782.65" y="424.87" width="44.72" height="44.72"/>
      </g>
      <g>
        <rect class="cls-8" x="536.68" y="715.57" width="178.89" height="178.88"/>
        <rect class="cls-17" x="536.68" y="775.49" width="178.89" height="59.03"/>
        <rect class="cls-1" x="536.68" y="800.54" width="178.89" height="8.95"/>
      </g>
      <g>
        <rect class="cls-17" x="894.46" y="715.57" width="178.89" height="178.88"/>
        <rect class="cls-12" x="939.18" y="760.29" width="89.45" height="89.44"/>
        <polyline class="cls-13" points="1073.35 894.45 894.46 894.45 894.46 715.57"/>
        <polyline class="cls-17" points="1028.63 849.73 939.18 849.73 939.18 760.29"/>
      </g>
      <g>
        <rect class="cls-17" x="894.46" y="178.89" width="178.89" height="178.9"/>
        <g class="cls-14">
          <circle class="cls-8" cx="894.46" cy="179.79" r="178.89"/>
          <path class="cls-5" d="m1028.63,179.79c0-74.1-60.07-134.17-134.17-134.17s-134.17,60.07-134.17,134.17,60.07,134.17,134.17,134.17,134.17-60.07,134.17-134.17Z"/>
          <path class="cls-17" d="m983.9,179.79c0-49.4-40.05-89.44-89.45-89.44s-89.44,40.04-89.44,89.44,40.04,89.44,89.44,89.44,89.45-40.04,89.45-89.44Z"/>
        </g>
      </g>
      <g>
        <rect class="cls-17" x="178.89" width="178.89" height="178.89"/>
        <g class="cls-10">
          <path class="cls-12" d="m357.78,178c0,98.8-80.09,178.89-178.89,178.89S0,276.8,0,178,80.09-.89,178.89-.89s178.89,80.09,178.89,178.89Z"/>
          <path class="cls-4" d="m313.06,178c0,74.1-60.07,134.17-134.17,134.17S44.72,252.1,44.72,178,104.79,43.83,178.89,43.83s134.17,60.06,134.17,134.17Z"/>
          <path class="cls-17" d="m268.33,178c0,49.4-40.04,89.44-89.44,89.44s-89.44-40.05-89.44-89.44,40.04-89.45,89.44-89.45,89.44,40.05,89.44,89.45Z"/>
        </g>
      </g>
      <g>
        <rect class="cls-17" x="357.78" width="178.9" height="178.89"/>
        <g class="cls-9">
          <path class="cls-13" d="m447.23,89.45c0,49.4-40.05,89.45-89.45,89.45s-89.45-40.04-89.45-89.45S308.38,0,357.78,0s89.45,40.04,89.45,89.45Z"/>
          <path class="cls-1" d="m402.5,89.45c0,24.7-20.02,44.72-44.72,44.72s-44.72-20.02-44.72-44.72,20.02-44.72,44.72-44.72,44.72,20.02,44.72,44.72Z"/>
          <path class="cls-1" d="m626.12,89.45c0,49.4-40.04,89.45-89.44,89.45s-89.45-40.04-89.45-89.45S487.27,0,536.68,0s89.44,40.04,89.44,89.45Z"/>
          <path class="cls-4" d="m603.76,89.45c0,37.05-30.03,67.08-67.08,67.08s-67.09-30.03-67.09-67.08,30.04-67.08,67.09-67.08,67.08,30.03,67.08,67.08Z"/>
          <path class="cls-8" d="m581.4,89.45c0,24.7-20.02,44.72-44.72,44.72s-44.73-20.02-44.73-44.72,20.03-44.72,44.73-44.72,44.72,20.02,44.72,44.72Z"/>
        </g>
      </g>
      <g>
        <rect class="cls-17" x="715.56" width="178.89" height="178.89"/>
        <polygon class="cls-8" points="715.56 178.89 805.01 89.45 894.46 178.89 715.56 178.89"/>
      </g>
      <g>
        <rect class="cls-13" x="715.56" y="178.89" width="178.89" height="178.89"/>
        <polygon class="cls-12" points="715.56 178.89 805.01 268.34 894.46 178.89 715.56 178.89"/>
        <polygon class="cls-1" points="760.29 178.89 805.01 223.61 849.73 178.89 760.29 178.89"/>
      </g>
      <g>
        <rect class="cls-17" x="894.46" width="178.89" height="178.89"/>
        <g>
          <rect class="cls-13" x="894.46" y="17.89" width="178.89" height="22.02"/>
          <rect class="cls-13" x="894.46" y="58.26" width="178.89" height="22.02"/>
          <rect class="cls-13" x="894.46" y="98.62" width="178.89" height="22.02"/>
          <rect class="cls-13" x="894.46" y="138.99" width="178.89" height="22.02"/>
        </g>
      </g>
      <g>
        <rect class="cls-17" y="178.89" width="178.89" height="178.89"/>
        <g>
          <path class="cls-1" d="m55.45,220.04c0,7.9-6.4,14.31-14.31,14.31s-14.31-6.41-14.31-14.31,6.41-14.31,14.31-14.31,14.31,6.41,14.31,14.31Z"/>
          <path class="cls-1" d="m103.76,220.04c0,7.9-6.41,14.31-14.31,14.31s-14.31-6.41-14.31-14.31,6.41-14.31,14.31-14.31,14.31,6.41,14.31,14.31Z"/>
          <path class="cls-1" d="m152.05,220.04c0,7.9-6.41,14.31-14.31,14.31s-14.31-6.41-14.31-14.31,6.41-14.31,14.31-14.31,14.31,6.41,14.31,14.31Z"/>
          <path class="cls-1" d="m55.46,268.34c0,7.9-6.41,14.31-14.31,14.31s-14.31-6.41-14.31-14.31,6.41-14.31,14.31-14.31,14.31,6.41,14.31,14.31Z"/>
          <path class="cls-1" d="m103.76,268.34c0,7.9-6.41,14.31-14.31,14.31s-14.31-6.41-14.31-14.31,6.41-14.31,14.31-14.31,14.31,6.41,14.31,14.31Z"/>
          <path class="cls-1" d="m152.05,268.34c0,7.9-6.41,14.31-14.31,14.31s-14.31-6.41-14.31-14.31,6.41-14.31,14.31-14.31,14.31,6.41,14.31,14.31Z"/>
          <path class="cls-1" d="m55.46,316.64c0,7.9-6.41,14.31-14.31,14.31s-14.31-6.41-14.31-14.31,6.41-14.31,14.31-14.31,14.31,6.41,14.31,14.31Z"/>
          <path class="cls-1" d="m103.76,316.64c0,7.9-6.41,14.31-14.31,14.31s-14.31-6.41-14.31-14.31,6.41-14.31,14.31-14.31,14.31,6.41,14.31,14.31Z"/>
          <path class="cls-1" d="m152.05,316.64c0,7.9-6.41,14.31-14.31,14.31s-14.31-6.41-14.31-14.31,6.41-14.31,14.31-14.31,14.31,6.41,14.31,14.31Z"/>
        </g>
      </g>
      <g>
        <rect class="cls-17" x="536.68" y="178.89" width="178.89" height="178.89"/>
        <g>
          <path class="cls-8" d="m617.17,203.04v114.49c0,5.29-.09,10.58,0,15.87,0,.08,0,.15,0,.23,0,4.68,4.11,9.16,8.94,8.94s8.94-3.93,8.94-8.94v-12.98c0-10.39,0-20.78,0-31.17,0-12.57,0-25.15,0-37.72v-32.62c0-5.29.09-10.58,0-15.87,0-.08,0-.15,0-.23,0-4.68-4.11-9.16-8.94-8.94s-8.94,3.93-8.94,8.94h0Z"/>
          <path class="cls-8" d="m560.83,277.28h114.49c5.29,0,10.58.09,15.87,0,.08,0,.15,0,.23,0,4.68,0,9.16-4.11,8.94-8.94s-3.93-8.94-8.94-8.94h-114.49c-5.29,0-10.58-.09-15.87,0-.08,0-.15,0-.23,0-4.68,0-9.16,4.11-8.94,8.94s3.93,8.94,8.94,8.94h0Z"/>
          <path class="cls-8" d="m573.62,228.49c3.06,3.06,6.12,6.12,9.18,9.18,7.35,7.35,14.69,14.7,22.04,22.04,8.89,8.89,17.78,17.78,26.67,26.67,7.69,7.69,15.38,15.38,23.06,23.07,3.74,3.74,7.42,7.55,11.22,11.22.05.05.11.11.16.16,3.31,3.31,9.38,3.56,12.65,0s3.54-9.11,0-12.65c-3.06-3.06-6.12-6.12-9.18-9.18-7.35-7.35-14.69-14.7-22.04-22.04-8.89-8.89-17.78-17.78-26.67-26.67-7.69-7.69-15.38-15.38-23.06-23.07-3.74-3.74-7.42-7.55-11.22-11.22-.05-.05-.11-.11-.16-.16-3.31-3.31-9.38-3.56-12.65,0s-3.54,9.11,0,12.65h0Z"/>
          <path class="cls-8" d="m586.27,320.83c3.06-3.06,6.12-6.12,9.18-9.18,7.35-7.35,14.69-14.69,22.04-22.04,8.89-8.89,17.78-17.78,26.67-26.67,7.69-7.69,15.38-15.38,23.06-23.06,3.74-3.74,7.55-7.42,11.22-11.22.05-.05.11-.11.16-.16,3.31-3.31,3.56-9.38,0-12.65s-9.11-3.54-12.65,0c-3.06,3.06-6.12,6.12-9.18,9.18-7.35,7.35-14.69,14.69-22.04,22.04-8.89,8.89-17.78,17.78-26.67,26.67-7.69,7.69-15.38,15.38-23.06,23.06-3.74,3.74-7.55,7.42-11.22,11.22-.05.05-.11.11-.16.16-3.31,3.31-3.56,9.38,0,12.65s9.11,3.54,12.65,0h0Z"/>
        </g>
      </g>
      <g>
        <rect class="cls-17" x="536.68" y="536.67" width="178.89" height="178.89"/>
        <g>
          <path class="cls-1" d="m697.68,626.12c0,39.52-32.04,71.56-71.56,71.56s-71.55-32.03-71.55-71.56,32.04-71.55,71.55-71.55,71.56,32.03,71.56,71.55Z"/>
          <path class="cls-12" d="m656.18,626.12c0,16.6-13.45,30.05-30.06,30.05s-30.05-13.46-30.05-30.05,13.46-30.05,30.05-30.05,30.06,13.46,30.06,30.05Z"/>
          <path class="cls-13" d="m641.15,626.12c0,8.3-6.73,15.03-15.03,15.03s-15.02-6.72-15.02-15.03,6.72-15.03,15.02-15.03,15.03,6.73,15.03,15.03Z"/>
        </g>
      </g>
      <g>
        <rect class="cls-17" x="357.78" y="715.57" width="178.9" height="178.88"/>
        <g>
          <path class="cls-2" d="m413.23,756.7c0,7.91-6.4,14.31-14.31,14.31s-14.31-6.41-14.31-14.31,6.41-14.31,14.31-14.31,14.31,6.41,14.31,14.31Z"/>
          <path class="cls-2" d="m461.54,756.7c0,7.91-6.41,14.31-14.31,14.31s-14.31-6.41-14.31-14.31,6.41-14.31,14.31-14.31,14.31,6.41,14.31,14.31Z"/>
          <path class="cls-2" d="m509.84,756.7c0,7.91-6.41,14.31-14.31,14.31s-14.31-6.41-14.31-14.31,6.41-14.31,14.31-14.31,14.31,6.41,14.31,14.31Z"/>
          <path class="cls-2" d="m413.24,805.01c0,7.9-6.41,14.31-14.31,14.31s-14.31-6.41-14.31-14.31,6.4-14.31,14.31-14.31,14.31,6.41,14.31,14.31Z"/>
          <path class="cls-5" d="m461.54,805.01c0,7.9-6.41,14.31-14.31,14.31s-14.31-6.41-14.31-14.31,6.41-14.31,14.31-14.31,14.31,6.41,14.31,14.31Z"/>
          <path class="cls-2" d="m509.84,805.01c0,7.9-6.41,14.31-14.31,14.31s-14.31-6.41-14.31-14.31,6.41-14.31,14.31-14.31,14.31,6.41,14.31,14.31Z"/>
          <path class="cls-2" d="m413.24,853.31c0,7.91-6.41,14.31-14.31,14.31s-14.31-6.41-14.31-14.31,6.4-14.31,14.31-14.31,14.31,6.41,14.31,14.31Z"/>
          <path class="cls-2" d="m461.54,853.31c0,7.91-6.41,14.31-14.31,14.31s-14.31-6.41-14.31-14.31,6.41-14.31,14.31-14.31,14.31,6.41,14.31,14.31Z"/>
          <path class="cls-2" d="m509.84,853.31c0,7.91-6.41,14.31-14.31,14.31s-14.31-6.41-14.31-14.31,6.41-14.31,14.31-14.31,14.31,6.41,14.31,14.31Z"/>
        </g>
      </g>
      <g>
        <rect class="cls-13" y="536.67" width="178.89" height="178.89"/>
        <g>
          <rect class="cls-17" y="554.56" width="178.89" height="22.01"/>
          <rect class="cls-17" y="594.93" width="178.89" height="22.02"/>
          <rect class="cls-17" y="635.29" width="178.89" height="22.01"/>
          <rect class="cls-17" y="675.66" width="178.89" height="22.01"/>
        </g>
      </g>
      <g>
        <rect class="cls-13" x="178.89" y="357.78" width="178.89" height="178.89"/>
        <polygon class="cls-12" points="178.89 536.67 268.33 357.78 357.78 536.67 178.89 536.67"/>
        <polygon class="cls-1" points="223.61 506.27 268.33 416.82 313.06 506.27 223.61 506.27"/>
        <polygon class="cls-17" points="245.97 492.84 268.33 448.13 290.7 492.84 245.97 492.84"/>
      </g>
      <g>
        <rect class="cls-17" x="715.56" y="715.57" width="178.89" height="178.88"/>
        <g class="cls-15">
          <path class="cls-12" d="m715.56,893.55c0,98.8,80.09,178.89,178.89,178.89s178.89-80.08,178.89-178.89-80.09-178.88-178.89-178.88-178.89,80.09-178.89,178.88Z"/>
          <path class="cls-3" d="m760.29,893.55c0,74.1,60.07,134.17,134.17,134.17s134.17-60.07,134.17-134.17-60.07-134.17-134.17-134.17-134.17,60.07-134.17,134.17Z"/>
          <path class="cls-8" d="m805.01,893.55c0,49.41,40.04,89.45,89.44,89.45s89.45-40.04,89.45-89.45-40.05-89.44-89.45-89.44-89.44,40.05-89.44,89.44Z"/>
          <path class="cls-17" d="m849.73,893.55c0,24.7,20.02,44.72,44.72,44.72s44.72-20.02,44.72-44.72-20.03-44.72-44.72-44.72-44.72,20.02-44.72,44.72Z"/>
        </g>
      </g>
      <g>
        <rect class="cls-8" x="894.46" y="536.67" width="177.89" height="178.89"/>
        <g class="cls-11">
          <path class="cls-12" d="m983.9,626.12c0,49.4-40.05,89.45-89.45,89.45s-89.44-40.05-89.44-89.45,40.04-89.44,89.44-89.44,89.45,40.04,89.45,89.44Z"/>
          <path class="cls-2" d="m961.54,626.12c0,37.05-30.03,67.08-67.08,67.08s-67.08-30.03-67.08-67.08,30.04-67.08,67.08-67.08,67.08,30.03,67.08,67.08Z"/>
          <path class="cls-1" d="m934.71,626.12c0,22.23-18.02,40.25-40.25,40.25s-40.25-18.02-40.25-40.25,18.02-40.25,40.25-40.25,40.25,18.02,40.25,40.25Z"/>
          <path class="cls-17" d="m1162.8,626.12c0,49.4-40.05,89.45-89.45,89.45s-89.44-40.05-89.44-89.45,40.04-89.44,89.44-89.44,89.45,40.04,89.45,89.44Z"/>
        </g>
      </g>
      <g>
        <rect class="cls-17" y="715.57" width="178.89" height="178.88"/>
        <g class="cls-16">
          <path class="cls-13" d="m89.44,805.01c0,49.4-40.04,89.44-89.44,89.44s-89.45-40.05-89.45-89.44S-49.4,715.57,0,715.57s89.44,40.03,89.44,89.44Z"/>
          <path class="cls-3" d="m44.72,805.01c0,24.7-20.02,44.72-44.72,44.72s-44.73-20.02-44.73-44.72,20.02-44.72,44.73-44.72,44.72,20.02,44.72,44.72Z"/>
          <path class="cls-8" d="m268.33,805.01c0,49.4-40.04,89.44-89.44,89.44s-89.44-40.05-89.44-89.44,40.04-89.44,89.44-89.44,89.44,40.03,89.44,89.44Z"/>
          <path class="cls-1" d="m223.61,805.01c0,24.7-20.02,44.72-44.72,44.72s-44.72-20.02-44.72-44.72,20.02-44.72,44.72-44.72,44.72,20.02,44.72,44.72Z"/>
          <path class="cls-17" d="m201.26,805.01c0,12.35-10.01,22.36-22.37,22.36s-22.36-10.01-22.36-22.36,10.01-22.36,22.36-22.36,22.37,10.01,22.37,22.36Z"/>
        </g>
      </g>
      <g>
        <rect class="cls-17" x="894.46" y="357.78" width="178.89" height="178.89"/>
        <g>
          <g>
            <path class="cls-1" d="m943.65,384.44v17.65c0,9.38,0,18.76,0,28.13v6.46c0,1.93,1.64,3.58,3.58,3.58s3.58-1.64,3.58-3.58v-52.24c0-1.93-1.64-3.58-3.58-3.58s-3.58,1.64-3.58,3.58h0Z"/>
            <path class="cls-1" d="m921.11,414.14h52.24c1.93,0,3.58-1.64,3.58-3.58s-1.64-3.58-3.58-3.58h-52.24c-1.93,0-3.58,1.64-3.58,3.58s1.64,3.58,3.58,3.58h0Z"/>
            <path class="cls-1" d="m926.23,394.62c4.16,4.16,8.32,8.32,12.48,12.48,6.63,6.63,13.26,13.26,19.89,19.89,1.52,1.52,3.04,3.04,4.57,4.57,3.26,3.26,8.32-1.8,5.06-5.06-4.16-4.16-8.32-8.32-12.48-12.48-6.63-6.63-13.26-13.26-19.89-19.89-1.52-1.52-3.04-3.04-4.57-4.57-3.26-3.26-8.32,1.8-5.06,5.06h0Z"/>
            <path class="cls-1" d="m931.29,431.55c4.16-4.16,8.32-8.32,12.48-12.48,6.63-6.63,13.26-13.26,19.89-19.89,1.52-1.52,3.04-3.04,4.57-4.57,3.26-3.26-1.8-8.32-5.06-5.06-4.16,4.16-8.32,8.32-12.48,12.48-6.63,6.63-13.26,13.26-19.89,19.89-1.52,1.52-3.04,3.04-4.57,4.57-3.26,3.26,1.8,8.32,5.06,5.06h0Z"/>
          </g>
          <g>
            <path class="cls-1" d="m943.65,457.78v17.65c0,9.38,0,18.75,0,28.13v6.46c0,1.93,1.64,3.58,3.58,3.58s3.58-1.64,3.58-3.58v-52.24c0-1.93-1.64-3.58-3.58-3.58s-3.58,1.64-3.58,3.58h0Z"/>
            <path class="cls-1" d="m921.11,487.48h52.24c1.93,0,3.58-1.64,3.58-3.58s-1.64-3.58-3.58-3.58h-52.24c-1.93,0-3.58,1.64-3.58,3.58s1.64,3.58,3.58,3.58h0Z"/>
            <path class="cls-1" d="m926.23,467.96c4.16,4.16,8.32,8.32,12.48,12.48,6.63,6.63,13.26,13.26,19.89,19.89,1.52,1.52,3.04,3.04,4.57,4.57,3.26,3.26,8.32-1.8,5.06-5.06-4.16-4.16-8.32-8.32-12.48-12.48-6.63-6.63-13.26-13.26-19.89-19.89-1.52-1.52-3.04-3.04-4.57-4.57-3.26-3.26-8.32,1.8-5.06,5.06h0Z"/>
            <path class="cls-1" d="m931.29,504.9c4.16-4.16,8.32-8.32,12.48-12.48l19.89-19.89c1.52-1.52,3.04-3.04,4.57-4.57,3.26-3.26-1.8-8.32-5.06-5.06-4.16,4.16-8.32,8.32-12.48,12.48-6.63,6.63-13.26,13.26-19.89,19.89-1.52,1.52-3.04,3.04-4.57,4.57-3.26,3.26,1.8,8.32,5.06,5.06h0Z"/>
          </g>
          <g>
            <path class="cls-1" d="m1017,384.44v52.24c0,1.93,1.64,3.58,3.58,3.58s3.58-1.64,3.58-3.58v-17.65c0-9.38,0-18.76,0-28.13,0-2.15,0-4.31,0-6.46,0-1.93-1.64-3.58-3.58-3.58s-3.58,1.64-3.58,3.58h0Z"/>
            <path class="cls-1" d="m994.46,414.14h52.24c1.93,0,3.58-1.64,3.58-3.58s-1.64-3.58-3.58-3.58h-52.24c-1.93,0-3.58,1.64-3.58,3.58s1.64,3.58,3.58,3.58h0Z"/>
            <path class="cls-1" d="m999.57,394.62c4.16,4.16,8.32,8.32,12.48,12.48,6.63,6.63,13.26,13.26,19.89,19.89,1.52,1.52,3.04,3.04,4.57,4.57,3.26,3.26,8.32-1.8,5.06-5.06-4.16-4.16-8.32-8.32-12.48-12.48-6.63-6.63-13.26-13.26-19.89-19.89-1.52-1.52-3.04-3.04-4.57-4.57-3.26-3.26-8.32,1.8-5.06,5.06h0Z"/>
            <path class="cls-1" d="m1004.63,431.55c4.16-4.16,8.32-8.32,12.48-12.48,6.63-6.63,13.26-13.26,19.89-19.89,1.52-1.52,3.04-3.04,4.57-4.57,3.26-3.26-1.8-8.32-5.06-5.06-4.16,4.16-8.32,8.32-12.48,12.48-6.63,6.63-13.26,13.26-19.89,19.89-1.52,1.52-3.04,3.04-4.57,4.57-3.26,3.26,1.8,8.32,5.06,5.06h0Z"/>
          </g>
          <g>
            <path class="cls-1" d="m1017,457.78v52.24c0,1.93,1.64,3.58,3.58,3.58s3.58-1.64,3.58-3.58v-17.65c0-9.38,0-18.75,0-28.13,0-2.15,0-4.31,0-6.46,0-1.93-1.64-3.58-3.58-3.58s-3.58,1.64-3.58,3.58h0Z"/>
            <path class="cls-1" d="m994.46,487.48h52.24c1.93,0,3.58-1.64,3.58-3.58s-1.64-3.58-3.58-3.58h-52.24c-1.93,0-3.58,1.64-3.58,3.58s1.64,3.58,3.58,3.58h0Z"/>
            <path class="cls-1" d="m999.57,467.96c4.16,4.16,8.32,8.32,12.48,12.48,6.63,6.63,13.26,13.26,19.89,19.89,1.52,1.52,3.04,3.04,4.57,4.57,3.26,3.26,8.32-1.8,5.06-5.06-4.16-4.16-8.32-8.32-12.48-12.48-6.63-6.63-13.26-13.26-19.89-19.89-1.52-1.52-3.04-3.04-4.57-4.57-3.26-3.26-8.32,1.8-5.06,5.06h0Z"/>
            <path class="cls-1" d="m1004.63,504.9c4.16-4.16,8.32-8.32,12.48-12.48,6.63-6.63,13.26-13.26,19.89-19.89,1.52-1.52,3.04-3.04,4.57-4.57,3.26-3.26-1.8-8.32-5.06-5.06-4.16,4.16-8.32,8.32-12.48,12.48-6.63,6.63-13.26,13.26-19.89,19.89-1.52,1.52-3.04,3.04-4.57,4.57-3.26,3.26,1.8,8.32,5.06,5.06h0Z"/>
          </g>
        </g>
      </g>
      <g>
        <rect class="cls-12" x="178.89" y="715.57" width="178.89" height="178.88"/>
        <g>
          <g>
            <path class="cls-17" d="m228.08,742.22v52.24c0,1.93,1.64,3.58,3.58,3.58s3.58-1.64,3.58-3.58v-52.24c0-1.93-1.64-3.58-3.58-3.58s-3.58,1.64-3.58,3.58h0Z"/>
            <path class="cls-17" d="m205.55,771.92h52.24c1.93,0,3.58-1.64,3.58-3.58s-1.64-3.58-3.58-3.58h-17.65c-9.38,0-18.75,0-28.13,0h-6.46c-1.93,0-3.58,1.64-3.58,3.58s1.64,3.58,3.58,3.58h0Z"/>
            <path class="cls-17" d="m210.66,752.4c4.16,4.16,8.32,8.32,12.48,12.48,6.63,6.63,13.26,13.26,19.89,19.89,1.52,1.52,3.04,3.04,4.57,4.57,3.26,3.26,8.32-1.8,5.06-5.06-4.16-4.16-8.32-8.32-12.48-12.48-6.63-6.63-13.26-13.26-19.89-19.89-1.52-1.52-3.04-3.04-4.57-4.57-3.26-3.26-8.32,1.8-5.06,5.06h0Z"/>
            <path class="cls-17" d="m215.72,789.33c4.16-4.16,8.32-8.32,12.48-12.48,6.63-6.63,13.26-13.26,19.89-19.89,1.52-1.52,3.04-3.04,4.57-4.57,3.26-3.26-1.8-8.32-5.06-5.06-4.16,4.16-8.32,8.32-12.48,12.48-6.63,6.63-13.26,13.26-19.89,19.89-1.52,1.52-3.04,3.04-4.57,4.57-3.26,3.26,1.8,8.32,5.06,5.06h0Z"/>
          </g>
          <g>
            <path class="cls-17" d="m228.08,815.56v52.24c0,1.93,1.64,3.58,3.58,3.58s3.58-1.64,3.58-3.58v-52.24c0-1.93-1.64-3.58-3.58-3.58s-3.58,1.64-3.58,3.58h0Z"/>
            <path class="cls-17" d="m205.55,845.26h52.24c1.93,0,3.58-1.64,3.58-3.58s-1.64-3.58-3.58-3.58h-52.24c-1.93,0-3.58,1.64-3.58,3.58s1.64,3.58,3.58,3.58h0Z"/>
            <path class="cls-17" d="m210.66,825.74c4.16,4.16,8.32,8.32,12.48,12.48,6.63,6.63,13.26,13.26,19.89,19.89,1.52,1.52,3.04,3.04,4.57,4.57,3.26,3.26,8.32-1.8,5.06-5.06-4.16-4.16-8.32-8.32-12.48-12.48-6.63-6.63-13.26-13.26-19.89-19.89-1.52-1.52-3.04-3.04-4.57-4.57-3.26-3.26-8.32,1.8-5.06,5.06h0Z"/>
            <path class="cls-17" d="m215.72,862.68c4.16-4.16,8.32-8.32,12.48-12.48,6.63-6.63,13.26-13.26,19.89-19.89,1.52-1.52,3.04-3.04,4.57-4.57,3.26-3.26-1.8-8.32-5.06-5.06-4.16,4.16-8.32,8.32-12.48,12.48-6.63,6.63-13.26,13.26-19.89,19.89-1.52,1.52-3.04,3.04-4.57,4.57-3.26,3.26,1.8,8.32,5.06,5.06h0Z"/>
          </g>
          <g>
            <path class="cls-17" d="m301.43,742.22v52.24c0,1.93,1.64,3.58,3.58,3.58s3.58-1.64,3.58-3.58v-52.24c0-1.93-1.64-3.58-3.58-3.58s-3.58,1.64-3.58,3.58h0Z"/>
            <path class="cls-17" d="m278.89,771.92h52.24c1.93,0,3.58-1.64,3.58-3.58s-1.64-3.58-3.58-3.58h-17.65c-9.38,0-18.75,0-28.13,0h-6.46c-1.93,0-3.58,1.64-3.58,3.58s1.64,3.58,3.58,3.58h0Z"/>
            <path class="cls-17" d="m284.01,752.4c4.16,4.16,8.32,8.32,12.48,12.48l19.89,19.89c1.52,1.52,3.04,3.04,4.57,4.57,3.26,3.26,8.32-1.8,5.06-5.06-4.16-4.16-8.32-8.32-12.48-12.48l-19.89-19.89c-1.52-1.52-3.04-3.04-4.57-4.57-3.26-3.26-8.32,1.8-5.06,5.06h0Z"/>
            <path class="cls-17" d="m289.07,789.33c4.16-4.16,8.32-8.32,12.48-12.48,6.63-6.63,13.26-13.26,19.89-19.89,1.52-1.52,3.04-3.04,4.57-4.57,3.26-3.26-1.8-8.32-5.06-5.06-4.16,4.16-8.32,8.32-12.48,12.48-6.63,6.63-13.26,13.26-19.89,19.89-1.52,1.52-3.04,3.04-4.57,4.57-3.26,3.26,1.8,8.32,5.06,5.06h0Z"/>
          </g>
          <g>
            <path class="cls-17" d="m301.43,815.56v52.24c0,1.93,1.64,3.58,3.58,3.58s3.58-1.64,3.58-3.58v-52.24c0-1.93-1.64-3.58-3.58-3.58s-3.58,1.64-3.58,3.58h0Z"/>
            <path class="cls-17" d="m278.89,845.26h52.24c1.93,0,3.58-1.64,3.58-3.58s-1.64-3.58-3.58-3.58h-52.24c-1.93,0-3.58,1.64-3.58,3.58s1.64,3.58,3.58,3.58h0Z"/>
            <path class="cls-17" d="m284.01,825.74c4.16,4.16,8.32,8.32,12.48,12.48l19.89,19.89c1.52,1.52,3.04,3.04,4.57,4.57,3.26,3.26,8.32-1.8,5.06-5.06-4.16-4.16-8.32-8.32-12.48-12.48l-19.89-19.89c-1.52-1.52-3.04-3.04-4.57-4.57-3.26-3.26-8.32,1.8-5.06,5.06h0Z"/>
            <path class="cls-17" d="m289.07,862.68c4.16-4.16,8.32-8.32,12.48-12.48,6.63-6.63,13.26-13.26,19.89-19.89,1.52-1.52,3.04-3.04,4.57-4.57,3.26-3.26-1.8-8.32-5.06-5.06-4.16,4.16-8.32,8.32-12.48,12.48-6.63,6.63-13.26,13.26-19.89,19.89-1.52,1.52-3.04,3.04-4.57,4.57-3.26,3.26,1.8,8.32,5.06,5.06h0Z"/>
          </g>
        </g>
      </g>
      <g>
        <rect class="cls-12" x="357.78" y="536.67" width="178.9" height="178.89"/>
        <rect class="cls-17" x="357.78" y="536.67" width="88.54" height="178.89"/>
        <polygon class="cls-1" points="357.78 715.57 448.13 626.12 357.78 536.67 357.78 715.57"/>
        <polygon class="cls-13" points="446.33 715.57 536.68 626.12 446.33 536.67 446.33 715.57"/>
      </g>
      <g>
        <rect class="cls-13" x="715.56" y="536.67" width="178.89" height="178.89"/>
        <polygon class="cls-1" points="891.02 626.12 805.01 712.14 718.99 626.12 805.01 540.1 891.02 626.12"/>
        <polygon class="cls-17" points="855.61 626.12 805.01 676.71 754.41 626.12 805.01 575.52 855.61 626.12"/>
      </g>
      <g>
        <rect class="cls-17" x="178.89" y="536.67" width="178.89" height="178.89"/>
        <rect class="cls-5" x="201.26" y="559.03" width="134.17" height="134.17"/>
        <rect class="cls-8" x="223.61" y="581.39" width="89.44" height="89.45"/>
        <rect class="cls-1" x="245.97" y="603.76" width="44.72" height="44.72"/>
      </g>
      <g>
        <rect class="cls-17" x="536.68" y="357.78" width="178.89" height="178.89"/>
        <g>
          <rect class="cls-1" x="554.56" y="357.78" width="22.02" height="178.89"/>
          <rect class="cls-1" x="594.92" y="357.78" width="22.03" height="178.89"/>
          <rect class="cls-1" x="635.3" y="357.78" width="22.01" height="178.89"/>
          <rect class="cls-1" x="675.66" y="357.78" width="22.01" height="178.89"/>
        </g>
      </g>
      <g>
        <rect class="cls-1" x="357.78" y="357.78" width="178.9" height="178.89"/>
        <g>
          <path class="cls-17" d="m527.73,447.23c0,44.46-36.04,80.5-80.5,80.5s-80.51-36.04-80.51-80.5,36.04-80.51,80.51-80.51,80.5,36.05,80.5,80.51Z"/>
          <path class="cls-8" d="m495.53,447.23c0,26.67-21.62,48.3-48.3,48.3s-48.3-21.62-48.3-48.3,21.62-48.3,48.3-48.3,48.3,21.62,48.3,48.3Z"/>
          <path class="cls-1" d="m468.96,447.23c0,12-9.73,21.73-21.73,21.73s-21.74-9.73-21.74-21.73,9.73-21.74,21.74-21.74,21.73,9.73,21.73,21.74Z"/>
        </g>
      </g>
    </g>
  </g>
</svg>