<?xml version="1.0" encoding="UTF-8"?>
<svg id="Layer_2" data-name="Layer 2" xmlns="http://www.w3.org/2000/svg" viewBox="0 0 810 810">
  <defs>
    <style>
      .cls-1 {
        fill: #e9e3c6;
      }

      .cls-2 {
        fill: #8c7ab1;
      }

      .cls-3 {
        stroke: #464973;
      }

      .cls-3, .cls-4 {
        fill: none;
        stroke-miterlimit: 10;
        stroke-width: 2px;
      }

      .cls-5 {
        fill: #6aa3bf;
      }

      .cls-6 {
        fill: #000b3f;
      }

      .cls-7 {
        fill: #95d4d9;
      }

      .cls-8 {
        fill: #f2ecd3;
      }

      .cls-9 {
        fill: #464973;
      }

      .cls-10 {
        fill: #a692cd;
      }

      .cls-4 {
        stroke: #e9e3c6;
      }

      .cls-11 {
        fill: #282a41;
      }
    </style>
  </defs>
  <g id="OBJECTS">
    <g>
      <rect class="cls-6" y="540" width="270" height="270"/>
      <path class="cls-8" d="m222.55,675h47.45v135h-47.45c-37.25,0-67.5-30.25-67.5-67.5h0c0-37.25,30.25-67.5,67.5-67.5Z"/>
      <path class="cls-7" d="m222.55,540h47.45v135h-47.45c-37.25,0-67.5-30.25-67.5-67.5h0c0-37.25,30.25-67.5,67.5-67.5Z"/>
    </g>
    <g>
      <rect class="cls-9" y="270" width="270" height="270"/>
      <path class="cls-1" d="m0,270h270v270h0C120.98,540,0,419.02,0,270h0Z"/>
      <path class="cls-6" d="m67.65,270h202.35v202.35h0c-111.68,0-202.35-90.67-202.35-202.35h0Z"/>
      <path class="cls-3" d="m270,430.51h0c-88.65,0-160.51-71.86-160.51-160.51h0"/>
      <path class="cls-6" d="m135,270h135v135h0c-74.51,0-135-60.49-135-135h0Z"/>
      <path class="cls-7" d="m202.33,270h67.67v67.67h0c-37.35,0-67.67-30.32-67.67-67.67h0Z"/>
    </g>
    <g>
      <rect class="cls-5" x="540" y="540" width="270" height="270"/>
      <path class="cls-8" d="m675,675h0c74.51,0,135,60.49,135,135h-270c0-74.51,60.49-135,135-135Z"/>
      <path class="cls-3" d="m560.69,810h0c0-63.13,51.18-114.31,114.31-114.31h0c63.13,0,114.31,51.18,114.31,114.31h0"/>
      <path class="cls-10" d="m675,730.34h0c43.97,0,79.66,35.69,79.66,79.66h-159.32c0-43.97,35.69-79.66,79.66-79.66Z"/>
      <path class="cls-6" d="m675,770.17h0c22,0,39.83,17.83,39.83,39.83h0s-79.66,0-79.66,0h0c0-22,17.83-39.83,39.83-39.83Z"/>
      <polygon class="cls-6" points="540 540 540 577.41 572.87 641.17 606.91 575.14 640.96 641.17 675 575.14 709.04 641.17 743.08 575.14 777.13 641.17 810 577.41 810 540 761.2 540 761.2 540 693.11 540 693.11 540 625.03 540 625.03 540 540 540"/>
    </g>
    <g>
      <rect class="cls-9" x="270" y="270" width="270" height="270"/>
      <path class="cls-11" d="m301.49,405c47.61,80.7,136.59,135,238.51,135v-270c-101.92,0-190.9,54.3-238.51,135Z"/>
      <polygon class="cls-8" points="540 540 270 540 270 472.34 540 540"/>
      <polygon class="cls-5" points="405.46 270 270 270 270 337.66 405.46 270"/>
      <path class="cls-6" d="m330.35,405c41.85,62.66,120.07,104.83,209.65,104.83v-209.65c-89.59,0-167.8,42.16-209.65,104.83Z"/>
      <path class="cls-2" d="m367.67,405c34.4,40.35,98.69,67.5,172.33,67.5v-135c-73.64,0-137.93,27.15-172.33,67.5Z"/>
      <path class="cls-8" d="m405,405c26.95,40.35,77.31,67.5,135,67.5v-135c-57.69,0-108.05,27.15-135,67.5Z"/>
      <path class="cls-3" d="m540,364.22c-39.78,0-74.51,16.4-93.09,40.78,18.58,24.38,53.31,40.78,93.09,40.78"/>
    </g>
    <g>
      <rect class="cls-6" x="540" width="270" height="270"/>
      <polygon class="cls-7" points="540 237.15 675 102.15 810 237.15 810 270 540 270 540 237.15"/>
      <polygon class="cls-5" points="785.86 270 675 159.14 564.14 270 785.86 270"/>
      <g>
        <polygon class="cls-11" points="810 93.09 810 63.02 746.98 0 716.91 0 810 93.09"/>
        <polygon class="cls-9" points="540 165.12 675 30.12 810 165.12 810 135.05 675 .05 540 135.05 540 165.12"/>
        <polygon class="cls-1" points="675 216.13 621.13 270 651.21 270 675 246.21 698.79 270 728.87 270 675 216.13"/>
        <polygon class="cls-8" points="675 102.15 810 237.15 810 207.08 675 72.08 540 207.08 540 237.15 675 102.15"/>
        <polygon class="cls-1" points="770.82 270 800.9 270 675 144.1 549.1 270 579.18 270 675 174.18 770.82 270"/>
        <polygon class="cls-11" points="633.09 0 603.02 0 540 63.02 540 93.09 633.09 0"/>
      </g>
    </g>
    <g>
      <rect class="cls-11" x="270" width="270" height="270"/>
      <path class="cls-9" d="m540,135c0-74.56-60.44-135-135-135s-135,60.44-135,135,60.44,135,135,135h135v-135Z"/>
      <rect class="cls-11" x="405" y="135" width="135" height="135"/>
      <rect class="cls-10" x="405" y="135" width="135" height="72.05"/>
      <ellipse class="cls-8" cx="405" cy="135" rx="97.23" ry="97.18" transform="translate(23.16 325.92) rotate(-45)"/>
      <ellipse class="cls-11" cx="405" cy="135" rx="35.84" ry="35.83" transform="translate(25.41 330.36) rotate(-45.67)"/>
      <ellipse class="cls-4" cx="405" cy="135" rx="116.55" ry="116.5" transform="translate(23.16 325.92) rotate(-45)"/>
      <path class="cls-7" d="m404.54,159.4c-13.05-.24-23.69-10.89-23.93-23.93-.26-13.84,11.02-25.12,24.86-24.86l-.93,48.79Z"/>
      <g>
        <path class="cls-10" d="m405,185.05h0c2.3,0,4.18,1.88,4.18,4.18v23.32c0,2.3-1.88,4.18-4.18,4.18h0c-2.3,0-4.18-1.88-4.18-4.18v-23.32c0-2.3,1.88-4.18,4.18-4.18Z"/>
        <path class="cls-10" d="m384.64,180.72h0c2.1.94,3.05,3.42,2.12,5.52l-9.48,21.3c-.94,2.1-3.42,3.05-5.52,2.12h0c-2.1-.94-3.05-3.42-2.12-5.52l9.48-21.3c.94-2.1,3.42-3.05,5.52-2.12Z"/>
        <path class="cls-10" d="m367.81,168.49h0c1.54,1.71,1.4,4.37-.31,5.9l-17.33,15.6c-1.71,1.54-4.37,1.4-5.9-.31h0c-1.54-1.71-1.4-4.37.31-5.9l17.33-15.6c1.71-1.54,4.37-1.4,5.9.31Z"/>
        <path class="cls-10" d="m357.4,150.47h0c.71,2.19-.5,4.56-2.68,5.27l-22.18,7.21c-2.19.71-4.56-.5-5.27-2.68h0c-.71-2.19.5-4.56,2.68-5.27l22.18-7.21c2.19-.71,4.56.5,5.27,2.68Z"/>
        <path class="cls-10" d="m355.23,129.77h0c-.24,2.29-2.31,3.96-4.59,3.72l-23.19-2.44c-2.29-.24-3.96-2.31-3.72-4.59h0c.24-2.29,2.31-3.96,4.59-3.72l23.19,2.44c2.29.24,3.96,2.31,3.72,4.59Z"/>
        <path class="cls-10" d="m361.66,109.98h0c-1.15,1.99-3.72,2.68-5.71,1.53l-20.19-11.66c-1.99-1.15-2.68-3.72-1.53-5.71h0c1.15-1.99,3.72-2.68,5.71-1.53l20.19,11.66c1.99,1.15,2.68,3.72,1.53,5.71Z"/>
        <path class="cls-10" d="m375.58,94.51h0c-1.86,1.35-4.49.94-5.84-.92l-13.71-18.87c-1.35-1.86-.94-4.49.92-5.84h0c1.86-1.35,4.49-.94,5.84.92l13.71,18.87c1.35,1.86.94,4.49-.92,5.84Z"/>
        <path class="cls-10" d="m394.59,86.04h0c-2.25.48-4.48-.97-4.96-3.22l-4.85-22.81c-.48-2.25.97-4.48,3.22-4.96h0c2.25-.48,4.48.97,4.96,3.22l4.85,22.81c.48,2.25-.97,4.48-3.22,4.96Z"/>
        <path class="cls-10" d="m415.41,86.04h0c-2.25-.48-3.7-2.71-3.22-4.96l4.85-22.81c.48-2.25,2.71-3.7,4.96-3.22h0c2.25.48,3.7,2.71,3.22,4.96l-4.85,22.81c-.48,2.25-2.71,3.7-4.96,3.22Z"/>
        <path class="cls-10" d="m434.42,94.51h0c-1.86-1.35-2.28-3.98-.92-5.84l13.71-18.87c1.35-1.86,3.98-2.28,5.84-.92h0c1.86,1.35,2.28,3.98.92,5.84l-13.71,18.86c-1.35,1.86-3.98,2.28-5.84.92Z"/>
        <path class="cls-10" d="m448.34,109.98h0c-1.15-1.99-.46-4.56,1.53-5.71l20.19-11.66c1.99-1.15,4.56-.46,5.71,1.53h0c1.15,1.99.46,4.56-1.53,5.71l-20.19,11.66c-1.99,1.15-4.56.46-5.71-1.53Z"/>
        <path class="cls-10" d="m454.77,129.77h0c-.24-2.29,1.43-4.35,3.72-4.59l23.19-2.44c2.29-.24,4.35,1.43,4.59,3.72h0c.24,2.29-1.43,4.35-3.72,4.59l-23.19,2.44c-2.29.24-4.35-1.43-4.59-3.72Z"/>
        <path class="cls-10" d="m452.6,150.47h0c.71-2.19,3.08-3.39,5.27-2.68l22.18,7.21c2.19.71,3.39,3.08,2.68,5.27h0c-.71,2.19-3.08,3.39-5.27,2.68l-22.18-7.21c-2.19-.71-3.39-3.08-2.68-5.27Z"/>
        <path class="cls-10" d="m442.19,168.49h0c1.54-1.71,4.2-1.85,5.9-.31l17.33,15.6c1.71,1.54,1.85,4.2.31,5.9h0c-1.54,1.71-4.2,1.85-5.9.31l-17.33-15.6c-1.71-1.54-1.85-4.2-.31-5.9Z"/>
        <path class="cls-10" d="m425.36,180.72h0c2.1-.94,4.58.02,5.52,2.12l9.48,21.3c.94,2.1-.02,4.58-2.12,5.52h0c-2.1.94-4.58-.02-5.52-2.12l-9.48-21.3c-.94-2.1.02-4.58,2.12-5.52Z"/>
      </g>
    </g>
    <g>
      <rect class="cls-8" width="270" height="270"/>
      <path class="cls-6" d="m270,0h0v270H67.65v-67.65C67.65,90.67,158.32,0,270,0Z"/>
      <path class="cls-3" d="m109.66,270v-53.61c0-88.55,71.79-160.34,160.34-160.34h0"/>
      <path class="cls-11" d="m270,95.3h0v174.7h-135v-39.7c0-74.51,60.49-135,135-135Z"/>
      <path class="cls-8" d="m270,135h0v135h-67.67v-67.33c0-37.35,30.32-67.67,67.67-67.67Z"/>
    </g>
    <g>
      <rect class="cls-11" x="540" y="270" width="270" height="270"/>
      <rect class="cls-6" x="540" y="300.17" width="270" height="209.65"/>
      <path class="cls-9" d="m712.33,405c-34.4-40.35-98.69-67.5-172.33-67.5v135c73.64,0,137.93-27.15,172.33-67.5Z"/>
      <path class="cls-1" d="m540,472.5c57.69,0,108.05-27.15,135-67.5-26.95-40.35-77.31-67.5-135-67.5v135Z"/>
      <circle class="cls-5" cx="540" cy="405" r="22.42"/>
      <path class="cls-8" d="m810,300.17h0v209.65h0c-55.7,0-100.93-45.23-100.93-100.93v-7.8c0-55.7,45.23-100.93,100.93-100.93Z"/>
      <circle class="cls-7" cx="759.53" cy="405" r="34.74"/>
      <path class="cls-3" d="m540,445.78c39.78,0,74.51-16.4,93.09-40.78-18.58-24.38-53.31-40.78-93.09-40.78"/>
    </g>
    <g>
      <rect class="cls-1" x="270" y="540" width="270" height="270"/>
      <path class="cls-5" d="m270,540h0c149.02,0,270,120.98,270,270h-270v-270h0Z"/>
      <path class="cls-3" d="m189.74,607.5h147.76c111.84,0,202.5,90.66,202.5,202.5h0"/>
      <rect class="cls-1" x="270" y="675" width="135" height="135"/>
      <path class="cls-6" d="m405,675h135v135h0c-74.51,0-135-60.49-135-135h0Z" transform="translate(945 1485) rotate(180)"/>
      <path class="cls-3" d="m189.74,742.5h215.26c37.28,0,67.5,30.22,67.5,67.5h0"/>
    </g>
  </g>
</svg>