<?xml version="1.0" encoding="UTF-8"?>
<svg id="Layer_2" data-name="Layer 2" xmlns="http://www.w3.org/2000/svg" viewBox="0 0 1919.14 794.92">
  <defs>
    <style>
      .cls-1 {
        fill: #b90c0c;
      }

      .cls-2 {
        fill: #f0ecd5;
      }

      .cls-3 {
        fill: #cef62e;
      }

      .cls-4 {
        fill: #f78077;
      }

      .cls-5 {
        fill: #1d246e;
      }
    </style>
  </defs>
  <g id="OBJECTS">
    <g>
      <g>
        <rect class="cls-2" x="1522.18" y="265.38" width="132.32" height="132.39"/>
        <rect class="cls-4" x="1654.5" y="265.38" width="132.32" height="132.39"/>
        <rect class="cls-2" x="1389.86" y="397.76" width="132.32" height="132.39"/>
        <rect class="cls-1" x="1522.18" y="397.76" width="132.32" height="132.39"/>
        <rect class="cls-2" x="1654.5" y="397.76" width="132.32" height="132.39"/>
        <rect class="cls-5" x="1389.86" y="530.15" width="132.32" height="132.39"/>
        <rect class="cls-2" x="1522.18" y="530.15" width="132.32" height="132.39"/>
        <rect class="cls-5" x="1654.5" y="530.15" width="132.32" height="132.39"/>
        <rect class="cls-2" x="1786.82" y="265.38" width="132.32" height="132.39"/>
        <rect class="cls-1" x="1786.82" y="397.76" width="132.32" height="132.39"/>
        <rect class="cls-2" x="1786.82" y="530.15" width="132.32" height="132.39"/>
        <rect class="cls-4" x="1786.82" y="662.54" width="132.32" height="132.39"/>
        <rect class="cls-2" x="1786.82" y="728.76" width="132.32" height="66.16"/>
        <rect class="cls-1" x="1389.86" y="662.54" width="132.32" height="132.39"/>
        <rect class="cls-4" x="1522.18" y="662.54" width="132.32" height="132.39"/>
        <rect class="cls-2" x="1654.5" y="662.54" width="132.32" height="132.39"/>
        <rect class="cls-4" x="1654.5" y="397.95" width="132.32" height="132.39" rx="66.16" ry="66.16"/>
        <g>
          <g>
            <path class="cls-5" d="m1561.74,366.77c0,3.8-3.08,6.88-6.88,6.88s-6.88-3.08-6.88-6.88,3.08-6.88,6.88-6.88,6.88,3.08,6.88,6.88Z"/>
            <path class="cls-5" d="m1597.47,366.77c0,3.8-3.08,6.88-6.88,6.88s-6.88-3.08-6.88-6.88,3.08-6.88,6.88-6.88,6.88,3.08,6.88,6.88Z"/>
            <path class="cls-5" d="m1633.19,366.77c0,3.8-3.08,6.88-6.88,6.88s-6.88-3.08-6.88-6.88,3.08-6.88,6.88-6.88,6.88,3.08,6.88,6.88Z"/>
          </g>
          <g>
            <path class="cls-5" d="m1561.74,331.57c0,3.8-3.08,6.88-6.88,6.88s-6.88-3.08-6.88-6.88,3.08-6.88,6.88-6.88,6.88,3.08,6.88,6.88Z"/>
            <circle class="cls-5" cx="1590.59" cy="331.57" r="6.88"/>
            <path class="cls-5" d="m1633.19,331.57c0,3.8-3.08,6.88-6.88,6.88s-6.88-3.08-6.88-6.88,3.08-6.88,6.88-6.88,6.88,3.08,6.88,6.88Z"/>
          </g>
          <g>
            <path class="cls-5" d="m1561.74,296.37c0,3.8-3.08,6.88-6.88,6.88s-6.88-3.08-6.88-6.88,3.08-6.88,6.88-6.88,6.88,3.08,6.88,6.88Z"/>
            <path class="cls-5" d="m1597.47,296.37c0,3.8-3.08,6.88-6.88,6.88s-6.88-3.08-6.88-6.88,3.08-6.88,6.88-6.88,6.88,3.08,6.88,6.88Z"/>
            <path class="cls-5" d="m1633.19,296.37c0,3.8-3.08,6.88-6.88,6.88s-6.88-3.08-6.88-6.88,3.08-6.88,6.88-6.88,6.88,3.08,6.88,6.88Z"/>
          </g>
        </g>
        <g>
          <g>
            <path class="cls-5" d="m1691.81,763.93c0,3.8-3.08,6.88-6.88,6.88s-6.88-3.08-6.88-6.88,3.08-6.88,6.88-6.88,6.88,3.08,6.88,6.88Z"/>
            <path class="cls-5" d="m1727.54,763.93c0,3.8-3.08,6.88-6.88,6.88s-6.88-3.08-6.88-6.88,3.08-6.88,6.88-6.88,6.88,3.08,6.88,6.88Z"/>
            <path class="cls-5" d="m1763.26,763.93c0,3.8-3.08,6.88-6.88,6.88s-6.88-3.08-6.88-6.88,3.08-6.88,6.88-6.88,6.88,3.08,6.88,6.88Z"/>
          </g>
          <g>
            <path class="cls-5" d="m1691.81,728.73c0,3.8-3.08,6.88-6.88,6.88s-6.88-3.08-6.88-6.88,3.08-6.88,6.88-6.88,6.88,3.08,6.88,6.88Z"/>
            <circle class="cls-5" cx="1720.66" cy="728.73" r="6.88"/>
            <path class="cls-5" d="m1763.26,728.73c0,3.8-3.08,6.88-6.88,6.88s-6.88-3.08-6.88-6.88,3.08-6.88,6.88-6.88,6.88,3.08,6.88,6.88Z"/>
          </g>
          <g>
            <path class="cls-5" d="m1691.81,693.53c0,3.8-3.08,6.88-6.88,6.88s-6.88-3.08-6.88-6.88,3.08-6.88,6.88-6.88,6.88,3.08,6.88,6.88Z"/>
            <path class="cls-5" d="m1727.54,693.53c0,3.8-3.08,6.88-6.88,6.88s-6.88-3.08-6.88-6.88,3.08-6.88,6.88-6.88,6.88,3.08,6.88,6.88Z"/>
            <path class="cls-5" d="m1763.26,693.53c0,3.8-3.08,6.88-6.88,6.88s-6.88-3.08-6.88-6.88,3.08-6.88,6.88-6.88,6.88,3.08,6.88,6.88Z"/>
          </g>
        </g>
        <path class="cls-4" d="m1522.18,530.15h132.32v.07c0,73.03-59.29,132.32-132.32,132.32h0v-132.39h0Z"/>
        <polygon class="cls-3" points="1786.82 397.76 1654.5 397.76 1654.5 265.38 1786.82 397.76"/>
        <rect class="cls-3" x="1588.44" y="397.76" width="66.16" height="66.19"/>
        <rect class="cls-5" x="1522.07" y="464.14" width="66.16" height="66.19"/>
        <polygon class="cls-3" points="1919.14 530.15 1786.82 530.15 1919.14 397.76 1919.14 530.15"/>
        <rect class="cls-5" x="1853.16" y="464.14" width="65.98" height="66.01"/>
        <path class="cls-4" d="m1522.18,530.15h0v132.39h-132.32v-.07c0-73.03,59.29-132.32,132.32-132.32Z"/>
        <rect class="cls-2" x="1546.25" y="686.63" width="84.16" height="84.2" transform="translate(980.5 -909.68) rotate(45)"/>
        <path class="cls-5" d="m1570.87,746.19h0c-9.64-9.64-9.64-25.27,0-34.91l.02-.02c9.64-9.64,25.27-9.64,34.91,0h0c9.64,9.64,9.64,25.27,0,34.91l-.02.02c-9.64,9.64-25.27,9.64-34.91,0Z"/>
        <polygon class="cls-4" points="1389.86 794.92 1389.86 662.54 1522.18 662.54 1389.86 794.92"/>
        <path class="cls-5" d="m1522.18,662.54h-71.98v-.04c0-39.75,32.23-71.98,71.98-71.98h0v72.02Z"/>
        <g>
          <path class="cls-4" d="m1919.14,132.43h0v132.39h-132.32v-.07c0-73.03,59.29-132.32,132.32-132.32Z"/>
          <path class="cls-5" d="m1919.14,264.82h-71.98v-.04c0-39.75,32.23-71.98,71.98-71.98h0v72.02Z"/>
        </g>
        <polygon class="cls-2" points="1486.18 698.54 1486.18 698.6 1425.86 758.91 1425.84 758.91 1425.84 698.54 1486.18 698.54"/>
        <polygon class="cls-5" points="1486.18 698.6 1486.18 758.91 1425.86 758.91 1486.18 698.6"/>
        <polygon class="cls-2" points="1883.14 301.39 1883.14 301.45 1822.82 361.76 1822.81 361.76 1822.81 301.39 1883.14 301.39"/>
        <polygon class="cls-5" points="1883.14 301.45 1883.14 361.76 1822.82 361.76 1883.14 301.45"/>
        <polygon class="cls-2" points="1895.02 728.72 1894.98 728.76 1810.94 728.75 1810.93 728.74 1852.99 686.68 1895.02 728.72"/>
        <polygon class="cls-5" points="1894.98 728.76 1852.96 770.78 1810.94 728.75 1894.98 728.76"/>
        <path class="cls-5" d="m1433.15,428.74h45.73c6.81,0,12.33,5.53,12.33,12.33v45.76c0,6.81-5.53,12.33-12.33,12.33h-45.73c-6.81,0-12.33-5.53-12.33-12.33v-45.76c0-6.81,5.53-12.33,12.33-12.33Z"/>
        <path class="cls-5" d="m1786.82,530.15h0v132.39h132.32v-.07c0-73.08-59.24-132.32-132.32-132.32Z"/>
        <path class="cls-5" d="m1258.09,794.92h0s132.39,0,132.39,0v-132.32h-.07c-73.08,0-132.32,59.24-132.32,132.32Z"/>
        <rect class="cls-2" x="1692.87" y="568.54" width="55.57" height="55.6"/>
        <g>
          <rect class="cls-4" x="1786.82" width="132.32" height="132.39"/>
          <rect class="cls-2" x="1810.9" y="24.09" width="84.16" height="84.2" transform="translate(589.53 -1290.86) rotate(45)"/>
          <path class="cls-5" d="m1835.51,83.66h0c-9.64-9.64-9.64-25.27,0-34.91l.02-.02c9.64-9.64,25.27-9.64,34.91,0h0c9.64,9.64,9.64,25.27,0,34.91l-.02.02c-9.64,9.64-25.27,9.64-34.91,0Z"/>
        </g>
      </g>
      <g>
        <rect class="cls-2" x="264.64" y="265.38" width="132.32" height="132.39" transform="translate(661.6 663.14) rotate(180)"/>
        <rect class="cls-4" x="132.32" y="265.38" width="132.32" height="132.39" transform="translate(396.96 663.14) rotate(180)"/>
        <rect class="cls-2" x="396.96" y="397.76" width="132.32" height="132.39" transform="translate(926.24 927.91) rotate(180)"/>
        <rect class="cls-1" x="264.64" y="397.76" width="132.32" height="132.39" transform="translate(661.6 927.91) rotate(180)"/>
        <rect class="cls-2" x="132.32" y="397.76" width="132.32" height="132.39" transform="translate(396.96 927.91) rotate(180)"/>
        <rect class="cls-5" x="396.96" y="530.15" width="132.32" height="132.39" transform="translate(926.24 1192.69) rotate(180)"/>
        <rect class="cls-2" x="264.64" y="530.15" width="132.32" height="132.39" transform="translate(661.6 1192.69) rotate(180)"/>
        <rect class="cls-5" x="132.32" y="530.15" width="132.32" height="132.39" transform="translate(396.96 1192.69) rotate(180)"/>
        <rect class="cls-2" y="265.38" width="132.32" height="132.39" transform="translate(132.32 663.14) rotate(180)"/>
        <rect class="cls-1" y="397.76" width="132.32" height="132.39" transform="translate(132.32 927.91) rotate(180)"/>
        <rect class="cls-2" y="530.15" width="132.32" height="132.39" transform="translate(132.32 1192.69) rotate(180)"/>
        <rect class="cls-4" y="662.54" width="132.32" height="132.39" transform="translate(132.32 1457.46) rotate(180)"/>
        <rect class="cls-2" y="728.76" width="132.32" height="66.16" transform="translate(132.32 1523.69) rotate(180)"/>
        <rect class="cls-1" x="396.96" y="662.54" width="132.32" height="132.39" transform="translate(926.24 1457.46) rotate(180)"/>
        <rect class="cls-4" x="264.64" y="662.54" width="132.32" height="132.39" transform="translate(661.6 1457.46) rotate(180)"/>
        <rect class="cls-2" x="132.32" y="662.54" width="132.32" height="132.39" transform="translate(396.96 1457.46) rotate(180)"/>
        <rect class="cls-4" x="132.32" y="397.95" width="132.32" height="132.39" rx="66.16" ry="66.16" transform="translate(396.96 928.28) rotate(-180)"/>
        <g>
          <g>
            <path class="cls-5" d="m357.4,366.77c0,3.8,3.08,6.88,6.88,6.88s6.88-3.08,6.88-6.88-3.08-6.88-6.88-6.88-6.88,3.08-6.88,6.88Z"/>
            <path class="cls-5" d="m321.67,366.77c0,3.8,3.08,6.88,6.88,6.88s6.88-3.08,6.88-6.88-3.08-6.88-6.88-6.88-6.88,3.08-6.88,6.88Z"/>
            <path class="cls-5" d="m285.94,366.77c0,3.8,3.08,6.88,6.88,6.88s6.88-3.08,6.88-6.88-3.08-6.88-6.88-6.88-6.88,3.08-6.88,6.88Z"/>
          </g>
          <g>
            <circle class="cls-5" cx="364.28" cy="331.57" r="6.88"/>
            <path class="cls-5" d="m321.67,331.57c0,3.8,3.08,6.88,6.88,6.88s6.88-3.08,6.88-6.88-3.08-6.88-6.88-6.88-6.88,3.08-6.88,6.88Z"/>
            <circle class="cls-5" cx="292.82" cy="331.57" r="6.88"/>
          </g>
          <g>
            <path class="cls-5" d="m357.4,296.37c0,3.8,3.08,6.88,6.88,6.88s6.88-3.08,6.88-6.88-3.08-6.88-6.88-6.88-6.88,3.08-6.88,6.88Z"/>
            <path class="cls-5" d="m321.67,296.37c0,3.8,3.08,6.88,6.88,6.88s6.88-3.08,6.88-6.88-3.08-6.88-6.88-6.88-6.88,3.08-6.88,6.88Z"/>
            <path class="cls-5" d="m285.94,296.37c0,3.8,3.08,6.88,6.88,6.88s6.88-3.08,6.88-6.88-3.08-6.88-6.88-6.88-6.88,3.08-6.88,6.88Z"/>
          </g>
        </g>
        <g>
          <g>
            <path class="cls-5" d="m227.33,763.93c0,3.8,3.08,6.88,6.88,6.88s6.88-3.08,6.88-6.88-3.08-6.88-6.88-6.88-6.88,3.08-6.88,6.88Z"/>
            <path class="cls-5" d="m191.6,763.93c0,3.8,3.08,6.88,6.88,6.88s6.88-3.08,6.88-6.88-3.08-6.88-6.88-6.88-6.88,3.08-6.88,6.88Z"/>
            <path class="cls-5" d="m155.87,763.93c0,3.8,3.08,6.88,6.88,6.88s6.88-3.08,6.88-6.88-3.08-6.88-6.88-6.88-6.88,3.08-6.88,6.88Z"/>
          </g>
          <g>
            <circle class="cls-5" cx="234.21" cy="728.73" r="6.88"/>
            <path class="cls-5" d="m191.6,728.73c0,3.8,3.08,6.88,6.88,6.88s6.88-3.08,6.88-6.88-3.08-6.88-6.88-6.88-6.88,3.08-6.88,6.88Z"/>
            <circle class="cls-5" cx="162.75" cy="728.73" r="6.88"/>
          </g>
          <g>
            <path class="cls-5" d="m227.33,693.53c0,3.8,3.08,6.88,6.88,6.88s6.88-3.08,6.88-6.88-3.08-6.88-6.88-6.88-6.88,3.08-6.88,6.88Z"/>
            <path class="cls-5" d="m191.6,693.53c0,3.8,3.08,6.88,6.88,6.88s6.88-3.08,6.88-6.88-3.08-6.88-6.88-6.88-6.88,3.08-6.88,6.88Z"/>
            <path class="cls-5" d="m155.87,693.53c0,3.8,3.08,6.88,6.88,6.88s6.88-3.08,6.88-6.88-3.08-6.88-6.88-6.88-6.88,3.08-6.88,6.88Z"/>
          </g>
        </g>
        <path class="cls-4" d="m264.64,530.15h0c73.03,0,132.32,59.29,132.32,132.32v.07h-132.32v-132.39h0Z" transform="translate(661.6 1192.69) rotate(180)"/>
        <polygon class="cls-3" points="132.32 397.76 264.64 397.76 264.64 265.38 132.32 397.76"/>
        <rect class="cls-3" x="264.53" y="397.76" width="66.16" height="66.19" transform="translate(595.23 861.72) rotate(180)"/>
        <rect class="cls-5" x="330.91" y="464.14" width="66.16" height="66.19" transform="translate(727.98 994.47) rotate(180)"/>
        <polygon class="cls-3" points="0 530.15 132.32 530.15 0 397.76 0 530.15"/>
        <rect class="cls-5" y="464.14" width="65.98" height="66.01" transform="translate(65.98 994.29) rotate(180)"/>
        <path class="cls-4" d="m396.96,530.15h132.32v132.39h0c-73.03,0-132.32-59.29-132.32-132.32v-.07h0Z" transform="translate(926.24 1192.69) rotate(180)"/>
        <rect class="cls-2" x="288.72" y="686.63" width="84.16" height="84.2" transform="translate(1080 1010.11) rotate(135)"/>
        <path class="cls-5" d="m348.26,746.19h0c9.64-9.64,9.64-25.27,0-34.91l-.02-.02c-9.64-9.64-25.27-9.64-34.91,0h0c-9.64,9.64-9.64,25.27,0,34.91l.02.02c9.64,9.64,25.27,9.64,34.91,0Z"/>
        <polygon class="cls-4" points="529.28 794.92 529.28 662.54 396.96 662.54 529.28 794.92"/>
        <path class="cls-5" d="m396.96,662.54h71.98v-.04c0-39.75-32.23-71.98-71.98-71.98h0v72.02Z"/>
        <g>
          <path class="cls-4" d="m0,132.43h132.32v132.39h0C59.29,264.82,0,205.53,0,132.5v-.07h0Z" transform="translate(132.32 397.25) rotate(180)"/>
          <path class="cls-5" d="m0,264.82h71.98v-.04c0-39.75-32.23-71.98-71.98-71.98h0v72.02Z"/>
        </g>
        <polygon class="cls-2" points="432.96 698.54 432.96 698.6 493.28 758.91 493.3 758.91 493.3 698.54 432.96 698.54"/>
        <polygon class="cls-5" points="432.96 698.6 432.96 758.91 493.28 758.91 432.96 698.6"/>
        <polygon class="cls-2" points="35.99 301.39 35.99 301.45 96.31 361.76 96.33 361.76 96.33 301.39 35.99 301.39"/>
        <polygon class="cls-5" points="35.99 301.45 35.99 361.76 96.31 361.76 35.99 301.45"/>
        <polygon class="cls-2" points="24.11 728.72 24.16 728.76 108.2 728.75 108.21 728.74 66.15 686.68 24.11 728.72"/>
        <polygon class="cls-5" points="24.16 728.76 66.17 770.78 108.2 728.75 24.16 728.76"/>
        <path class="cls-5" d="m440.26,428.74h45.73c6.81,0,12.33,5.53,12.33,12.33v45.76c0,6.81-5.53,12.33-12.33,12.33h-45.73c-6.81,0-12.33-5.53-12.33-12.33v-45.76c0-6.81,5.53-12.33,12.33-12.33Z" transform="translate(926.24 927.91) rotate(180)"/>
        <path class="cls-5" d="m132.32,530.15h0v132.39H0v-.07C0,589.39,59.24,530.15,132.32,530.15Z"/>
        <path class="cls-5" d="m661.05,794.92h0s-132.39,0-132.39,0v-132.32h.07c73.08,0,132.32,59.24,132.32,132.32Z"/>
        <rect class="cls-2" x="170.69" y="568.54" width="55.57" height="55.6" transform="translate(396.96 1192.69) rotate(180)"/>
        <g>
          <rect class="cls-4" width="132.32" height="132.39" transform="translate(132.32 132.39) rotate(180)"/>
          <rect class="cls-2" x="24.08" y="24.09" width="84.16" height="84.2" transform="translate(159.75 66.22) rotate(135)"/>
          <path class="cls-5" d="m83.62,83.66h0c9.64-9.64,9.64-25.27,0-34.91l-.02-.02c-9.64-9.64-25.27-9.64-34.91,0h0c-9.64,9.64-9.64,25.27,0,34.91l.02.02c9.64,9.64,25.27,9.64,34.91,0Z"/>
        </g>
      </g>
    </g>
  </g>
</svg>