<?xml version="1.0" encoding="UTF-8"?>
<svg id="Layer_2" data-name="Layer 2" xmlns="http://www.w3.org/2000/svg" xmlns:xlink="http://www.w3.org/1999/xlink" viewBox="0 0 1021.34 765.92">
  <defs>
    <style>
      .cls-1 {
        fill: #487d75;
      }

      .cls-2 {
        fill: #fff;
      }

      .cls-3 {
        fill: #e27400;
      }

      .cls-4 {
        fill: #e1a31b;
      }

      .cls-5 {
        fill: #cef62e;
      }

      .cls-6 {
        stroke: #fff;
        stroke-miterlimit: 10;
        stroke-width: 7.69px;
      }

      .cls-6, .cls-7 {
        fill: none;
      }

      .cls-8 {
        fill: #d9a126;
      }

      .cls-9 {
        clip-path: url(#clippath-1);
      }

      .cls-10 {
        fill: #272e44;
      }

      .cls-11 {
        clip-path: url(#clippath);
      }
    </style>
    <clipPath id="clippath">
      <polygon class="cls-7" points="520.67 255.3 510.68 255.3 382.97 255.3 382.97 382.96 510.63 382.96 510.68 382.24 510.68 382.96 638.34 382.96 638.34 255.3 520.67 255.3"/>
    </clipPath>
    <clipPath id="clippath-1">
      <polygon class="cls-7" points="893.69 638.25 893.69 638.25 766.03 638.25 766.03 765.9 893.69 765.9 893.69 765.91 1021.34 765.91 1021.34 638.25 893.69 638.25"/>
    </clipPath>
  </defs>
  <g id="OBJECTS">
    <g>
      <rect class="cls-10" x="893.6" y="127.65" width="127.65" height="127.66" transform="translate(1914.86 382.95) rotate(180)"/>
      <path class="cls-5" d="m893.6,127.65h127.65v17.6c0,60.74-49.31,110.06-110.06,110.06h-17.6v-127.66h0Z" transform="translate(1914.86 382.95) rotate(-180)"/>
      <rect class="cls-1" x="255.32" y="382.96" width="127.65" height="127.66"/>
      <rect class="cls-10" x="638.34" y="127.65" width="127.65" height="127.66"/>
      <path class="cls-10" d="m319.14,401.95h0c-24.77,0-44.84,20.08-44.84,44.84s20.08,44.84,44.84,44.84h0c24.77,0,44.84-20.08,44.84-44.84s-20.08-44.84-44.84-44.84Z"/>
      <path class="cls-8" d="m319.14,426.01h0c-11.47,0-20.77,9.3-20.77,20.77s9.3,20.77,20.77,20.77h0c11.47,0,20.77-9.3,20.77-20.77s-9.3-20.77-20.77-20.77Z"/>
      <rect class="cls-3" x="510.68" y="255.3" width="127.66" height="127.66"/>
      <rect class="cls-3" x="382.97" y="255.3" width="127.66" height="127.66"/>
      <rect class="cls-1" x="765.99" y="127.65" width="127.65" height="127.66"/>
      <rect class="cls-10" x="893.65" y="255.29" width="127.65" height="127.66" transform="translate(1914.96 638.24) rotate(180)"/>
      <path class="cls-5" d="m893.6,255.29h127.65v17.6c0,60.74-49.31,110.06-110.06,110.06h-17.6v-127.66h0Z" transform="translate(1276.55 -638.31) rotate(90)"/>
      <path class="cls-10" d="m829.82,127.65c-5.8,65.1-31.28,116.06-63.83,127.65h127.66c-32.55-11.6-58.03-62.56-63.83-127.65Z"/>
      <rect class="cls-10" x="765.94" width="127.67" height="127.67"/>
      <path class="cls-3" d="m948.63,0h17.6C996.6,0,1021.26,24.66,1021.26,55.03v72.63h-127.67V55.03C893.59,24.66,918.25,0,948.63,0Z"/>
      <rect class="cls-10" x="765.99" y="255.3" width="127.7" height="127.65"/>
      <polygon class="cls-1" points="765.94 255.28 765.94 382.97 638.29 255.28 765.94 255.28"/>
      <rect class="cls-4" x="786.91" y="276.22" width="85.85" height="85.82" rx="42.91" ry="42.91"/>
      <g>
        <rect class="cls-1" x="700.2" y="204.2" width="3.93" height="51.05"/>
        <path class="cls-1" d="m721.93,176.37c-3.47-4.51-5.16-12.58-3.04-17.85.83-2.06,1.29-4.31,1.29-6.67h0c0-7.61-4.72-14.62-11.96-16.96-12.43-4.03-23.89,5.13-23.89,16.96h0c0,2.36.46,4.61,1.29,6.68,2.38,5.9,1.02,12.68-2.91,17.69-4.22,5.38-6.25,12.55-4.78,20.19,1.89,9.78,9.77,17.61,19.57,19.43,15.79,2.94,29.57-9.1,29.57-24.36,0-5.68-1.91-10.91-5.13-15.09Z"/>
      </g>
      <g>
        <rect class="cls-1" x="636.37" y="204.2" width="3.93" height="51.05"/>
        <path class="cls-1" d="m658.1,176.37c-3.47-4.51-5.16-12.58-3.04-17.85.83-2.06,1.29-4.31,1.29-6.67h0c0-7.61-4.72-14.62-11.96-16.96-12.43-4.03-23.89,5.13-23.89,16.96h0c0,2.36.46,4.61,1.29,6.68,2.38,5.9,1.02,12.68-2.91,17.69-4.22,5.38-6.25,12.55-4.78,20.19,1.89,9.78,9.77,17.61,19.57,19.43,15.79,2.94,29.57-9.1,29.57-24.36,0-5.68-1.91-10.91-5.13-15.09Z"/>
      </g>
      <g>
        <rect class="cls-1" x="572.53" y="204.2" width="3.93" height="51.05"/>
        <path class="cls-1" d="m594.26,176.37c-3.47-4.51-5.16-12.58-3.04-17.85.83-2.06,1.29-4.31,1.29-6.67h0c0-7.61-4.72-14.62-11.96-16.96-12.43-4.03-23.89,5.13-23.89,16.96h0c0,2.36.46,4.61,1.29,6.68,2.38,5.9,1.01,12.68-2.91,17.69-4.22,5.38-6.25,12.55-4.78,20.19,1.89,9.78,9.77,17.61,19.57,19.43,15.79,2.94,29.57-9.1,29.57-24.36,0-5.68-1.91-10.91-5.13-15.09Z"/>
      </g>
      <rect class="cls-10" x="510.72" y="510.59" width="127.65" height="127.66"/>
      <g>
        <rect class="cls-1" x="572.46" y="580.9" width="3.93" height="51.05"/>
        <path class="cls-1" d="m594.18,553.07c-3.47-4.51-5.16-12.58-3.04-17.85.83-2.06,1.29-4.31,1.29-6.67h0c0-7.61-4.72-14.62-11.96-16.96-12.43-4.03-23.89,5.13-23.89,16.96h0c0,2.36.46,4.61,1.29,6.68,2.38,5.9,1.01,12.68-2.91,17.69-4.22,5.38-6.25,12.55-4.78,20.19,1.89,9.78,9.77,17.61,19.57,19.43,15.79,2.94,29.57-9.1,29.57-24.36,0-5.68-1.91-10.91-5.13-15.09Z"/>
      </g>
      <rect class="cls-10" x="893.69" y="510.59" width="127.65" height="127.66" transform="translate(1915.03 1148.84) rotate(180)"/>
      <rect class="cls-10" x="893.69" y="382.94" width="127.65" height="127.66"/>
      <path class="cls-1" d="m893.69,382.94h127.65v17.6c0,60.74-49.31,110.06-110.06,110.06h-17.6v-127.66h0Z"/>
      <rect class="cls-5" x="766.03" y="510.59" width="127.65" height="127.66" transform="translate(1659.72 1148.84) rotate(180)"/>
      <path class="cls-10" d="m829.86,529.58h0c24.77,0,44.84,20.08,44.84,44.84s-20.08,44.84-44.84,44.84h0c-24.77,0-44.84-20.08-44.84-44.84s20.08-44.84,44.84-44.84Z"/>
      <path class="cls-1" d="m829.86,554.11h0c11.22,0,20.31,9.09,20.31,20.31s-9.09,20.31-20.31,20.31h0c-11.22,0-20.31-9.09-20.31-20.31s9.09-20.31,20.31-20.31Z"/>
      <rect class="cls-1" x="766.03" y="638.25" width="127.66" height="127.66"/>
      <rect class="cls-10" x="893.69" y="638.25" width="127.66" height="127.66"/>
      <rect class="cls-3" x="638.38" y="510.59" width="127.65" height="127.66"/>
      <path class="cls-1" d="m893.74,382.95h0v127.66h-127.66c0-70.5,57.15-127.66,127.65-127.66Z"/>
      <g>
        <rect class="cls-1" y="723.36" width="42.55" height="42.55"/>
        <rect class="cls-1" x="42.55" y="680.8" width="42.55" height="42.55"/>
        <rect class="cls-1" x="85.11" y="638.25" width="42.55" height="42.55"/>
        <rect class="cls-1" x="127.66" y="595.7" width="42.55" height="42.55"/>
        <rect class="cls-1" x="170.21" y="553.14" width="42.55" height="42.55"/>
        <rect class="cls-1" x="212.76" y="510.59" width="42.55" height="42.55"/>
        <polygon class="cls-1" points="42.55 765.91 255.4 765.91 255.4 553.14 255.32 510.59 0 765.91 42.55 765.91"/>
      </g>
      <g>
        <g>
          <path class="cls-3" d="m121.39,382.93h8.8c30.38,0,55.04,24.66,55.04,55.04v8.8h-63.84v-63.84h0Z"/>
          <path class="cls-3" d="m121.41,446.76h0v-63.84h-63.84c0,35.26,28.58,63.84,63.84,63.84Z"/>
        </g>
        <g>
          <path class="cls-3" d="m121.39,319.11h8.8c30.38,0,55.04,24.66,55.04,55.04v8.8h-63.84v-63.84h0Z"/>
          <path class="cls-3" d="m121.41,382.95h0v-63.84h-63.84c0,35.26,28.58,63.84,63.84,63.84Z"/>
        </g>
      </g>
      <path class="cls-10" d="m702.2,510.59c-5.8,65.1-31.28,116.06-63.83,127.66h127.66c-32.55-11.6-58.03-62.56-63.83-127.66Z"/>
      <polygon class="cls-2" points="447.65 446.04 447.65 446.02 447.64 446.03 447.63 446.02 447.63 446.04 383.05 510.61 447.63 510.61 447.65 510.61 512.23 510.61 447.65 446.04"/>
      <polygon class="cls-5" points="575.32 446.04 575.32 446.02 575.31 446.03 575.3 446.02 575.3 446.04 510.72 510.61 575.3 510.61 575.32 510.61 639.89 510.61 575.32 446.04"/>
      <rect class="cls-10" x="638.42" y="382.95" width="127.67" height="127.67"/>
      <rect class="cls-2" x="674.9" y="419.56" width="54.43" height="54.43" rx="23.46" ry="23.46" transform="translate(1404.23 893.56) rotate(-180)"/>
      <rect class="cls-10" x="510.68" y="638.25" width="127.7" height="127.65"/>
      <rect class="cls-2" x="638.41" y="638.25" width="127.7" height="127.65"/>
      <polygon class="cls-3" points="382.97 638.27 510.63 638.27 382.97 510.61 382.97 638.27"/>
      <rect class="cls-3" x="382.97" y="638.27" width="127.66" height="127.66"/>
      <polygon class="cls-3" points="382.97 638.27 255.32 638.27 382.97 510.61 382.97 638.27"/>
      <rect class="cls-3" x="255.35" y="638.27" width="127.7" height="127.65"/>
      <polygon class="cls-2" points="127.62 765.92 255.32 765.92 255.32 638.27 127.62 765.92"/>
      <rect class="cls-5" x="531.61" y="659.16" width="85.85" height="85.82" rx="42.91" ry="42.91"/>
      <circle class="cls-5" cx="413.77" cy="111.84" r="79.67" transform="translate(42.11 325.33) rotate(-45)"/>
      <g>
        <path class="cls-2" d="m220.93,111.84c-19.37,0-36.29,10.32-45.69,25.72h91.38c-9.41-15.4-26.32-25.72-45.69-25.72Z"/>
        <path class="cls-2" d="m327.94,103.04c-25.99,0-48.7,13.85-61.32,34.52h122.63c-12.62-20.67-35.32-34.52-61.32-34.52Z"/>
      </g>
      <g>
        <path class="cls-2" d="m888.57,22.14c19.37,0,36.29,10.32,45.69,25.72h-91.38c9.41-15.4,26.32-25.72,45.69-25.72Z"/>
        <path class="cls-2" d="m781.56,13.34c25.99,0,48.7,13.85,61.32,34.52h-122.63c12.62-20.67,35.32-34.52,61.32-34.52Z"/>
      </g>
      <path class="cls-10" d="m420.16,707.29v58.61h-74.23v-58.61c0-20.5,16.62-37.12,37.12-37.12h0c20.5,0,37.12,16.62,37.12,37.12Z"/>
      <g class="cls-11">
        <g>
          <circle class="cls-6" cx="510.63" cy="382.96" r="13.28"/>
          <circle class="cls-6" cx="510.63" cy="382.96" r="31.97"/>
          <circle class="cls-6" cx="510.63" cy="382.96" r="50.66"/>
          <circle class="cls-6" cx="510.63" cy="382.96" r="69.36"/>
          <circle class="cls-6" cx="510.63" cy="382.96" r="88.05"/>
          <circle class="cls-6" cx="510.63" cy="382.96" r="106.74"/>
        </g>
      </g>
      <g class="cls-9">
        <g>
          <circle class="cls-6" cx="893.74" cy="765.9" r="13.28"/>
          <path class="cls-6" d="m925.72,765.9c0,17.66-7.28,33.3-24.94,33.3s-39.01-15.64-39.01-33.3,14.31-31.97,31.97-31.97,31.97,14.31,31.97,31.97Z"/>
          <path class="cls-6" d="m944.41,765.9c0,27.98-8.61,53.31-36.59,53.31s-64.73-25.33-64.73-53.31,22.68-50.66,50.66-50.66,50.66,22.68,50.66,50.66Z"/>
          <path class="cls-6" d="m963.1,765.9c0,38.3-9.95,73.32-48.25,73.32s-90.46-35.02-90.46-73.32,31.05-69.36,69.36-69.36,69.36,31.05,69.36,69.36Z"/>
          <path class="cls-6" d="m981.79,765.9c0,48.63-11.28,93.34-59.91,93.34s-116.19-44.71-116.19-93.34,39.42-88.05,88.05-88.05,88.05,39.42,88.05,88.05Z"/>
          <path class="cls-6" d="m1000.48,765.9c0,58.95-12.61,113.35-71.56,113.35s-141.91-54.4-141.91-113.35,47.79-106.74,106.74-106.74,106.74,47.79,106.74,106.74Z"/>
        </g>
      </g>
      <g>
        <g>
          <path class="cls-1" d="m319.14,255.3c35.25,0,63.83,28.58,63.83,63.83h-34.76c0-35.25-13.01-63.83-29.07-63.83Z"/>
          <path class="cls-8" d="m319.14,255.3c-16.05,0-29.07,28.58-29.07,63.83h-34.76c0-35.25,28.58-63.83,63.83-63.83Z"/>
          <path class="cls-3" d="m319.14,255.3h0c16.05,0,29.07,28.58,29.07,63.83h-58.13c0-35.25,13.01-63.83,29.07-63.83Z"/>
        </g>
        <rect class="cls-1" x="314.92" y="319.13" width="8.46" height="63.82" transform="translate(638.29 702.07) rotate(180)"/>
      </g>
      <g>
        <g>
          <path class="cls-1" d="m957.51,510.59c35.25,0,63.83,28.58,63.83,63.83h-34.76c0-35.25-13.01-63.83-29.07-63.83Z"/>
          <path class="cls-8" d="m957.51,510.59c-16.05,0-29.07,28.58-29.07,63.83h-34.76c0-35.25,28.58-63.83,63.83-63.83Z"/>
          <path class="cls-3" d="m957.51,510.59h0c16.05,0,29.07,28.58,29.07,63.83h-58.13c0-35.25,13.01-63.83,29.07-63.83Z"/>
        </g>
        <rect class="cls-1" x="953.29" y="574.42" width="8.46" height="63.82" transform="translate(1915.03 1212.66) rotate(180)"/>
      </g>
    </g>
  </g>
</svg>